<?xml version="1.0" encoding="UTF-8"?>
<svg xmlns="http://www.w3.org/2000/svg" width="169" height="54" viewBox="0 0 169 54" fill="none">
  <path d="M0 31.4406H3.28209V20.5138H11.9772C16.7188 20.5138 20.1208 16.9815 20.1208 12.0954C20.1208 7.20927 16.7222 3.63574 11.9772 3.63574H0V31.4406ZM11.9738 6.61483C14.8208 6.61483 16.8729 8.87578 16.8729 12.0954C16.8729 15.315 14.8242 17.576 11.9738 17.576H3.28209V6.61139H11.9772L11.9738 6.61483Z" fill="#000A3D"></path>
  <path d="M27.3565 31.4406L30.2 24.3691H43.8731L46.7201 31.4406H50.0776L38.8918 3.63574H35.178L23.9956 31.4406H27.3565ZM37.0349 7.36733L42.6877 21.39H31.3889L37.0349 7.36733Z" fill="#000A3D"></path>
  <path d="M97.3318 31.7189C101.364 31.7189 104.842 30.1314 107.212 27.465L104.722 25.3621C102.944 27.386 100.333 28.5783 97.3284 28.5783C91.4391 28.5783 87.1361 23.9327 87.1361 17.5347C87.1361 11.1367 91.4391 6.49113 97.3284 6.49113C100.333 6.49113 102.944 7.68346 104.722 9.71419L107.212 7.6113C104.842 4.94833 101.361 3.35742 97.3318 3.35742C89.548 3.35742 83.8574 9.3156 83.8574 17.5382C83.8574 25.7607 89.548 31.7223 97.3318 31.7223V31.7189Z" fill="#000A3D"></path>
  <path d="M125.675 31.7184C133.462 31.7184 139.153 25.7602 139.153 17.5343C139.153 9.30826 133.462 3.35352 125.675 3.35352C117.888 3.35352 112.201 9.31169 112.201 17.5343C112.201 25.7568 117.891 31.7184 125.675 31.7184ZM115.483 17.5343C115.483 11.1397 119.786 6.49066 125.675 6.49066C131.564 6.49066 135.874 11.1397 135.874 17.5343C135.874 23.9288 131.564 28.5778 125.675 28.5778C119.786 28.5778 115.483 23.9322 115.483 17.5343Z" fill="#000A3D"></path>
  <path d="M145.96 3.63574V31.4406H149.242V8.92045L165.718 31.444H169V3.63574H165.718V26.1593L149.242 3.63574H145.96Z" fill="#000A3D"></path>
  <mask id="mask0_362_26943" style="mask-type:luminance" maskUnits="userSpaceOnUse" x="62" y="3" width="6" height="6">
    <path d="M67.7895 3.44238H62.9863V8.25978H67.7895V3.44238Z" fill="white"></path>
  </mask>
  <g mask="url(#mask0_362_26943)">
    <mask id="mask1_362_26943" style="mask-type:luminance" maskUnits="userSpaceOnUse" x="62" y="3" width="6" height="6">
      <path d="M67.9164 3.3457H62.9658V8.31085H67.9164V3.3457Z" fill="white"></path>
    </mask>
    <g mask="url(#mask1_362_26943)">
      <mask id="mask2_362_26943" style="mask-type:luminance" maskUnits="userSpaceOnUse" x="62" y="3" width="6" height="6">
        <path d="M67.7861 5.85108C67.7861 7.18085 66.7104 8.25978 65.3845 8.25978C64.0587 8.25978 62.9829 7.18085 62.9829 5.85108C62.9829 4.52131 64.0587 3.44238 65.3845 3.44238C66.7104 3.44238 67.7861 4.52131 67.7861 5.85108Z" fill="white"></path>
      </mask>
      <g mask="url(#mask2_362_26943)">
        <mask id="mask3_362_26943" style="mask-type:luminance" maskUnits="userSpaceOnUse" x="62" y="3" width="6" height="6">
          <path d="M67.9164 3.3457H62.9658V8.31085H67.9164V3.3457Z" fill="white"></path>
        </mask>
        <g mask="url(#mask3_362_26943)">
          <path d="M59.5537 11.6989H71.2192V-0.000976562H59.5537V11.6989Z" fill="#00093D"></path>
        </g>
      </g>
    </g>
  </g>
  <mask id="mask4_362_26943" style="mask-type:luminance" maskUnits="userSpaceOnUse" x="52" y="9" width="6" height="6">
    <path d="M57.7309 9.2666H52.9277V14.084H57.7309V9.2666Z" fill="white"></path>
  </mask>
  <g mask="url(#mask4_362_26943)">
    <mask id="mask5_362_26943" style="mask-type:luminance" maskUnits="userSpaceOnUse" x="52" y="8" width="6" height="7">
      <path d="M57.7344 8.875H52.9277V14.4071H57.7344V8.875Z" fill="white"></path>
    </mask>
    <g mask="url(#mask5_362_26943)">
      <mask id="mask6_362_26943" style="mask-type:luminance" maskUnits="userSpaceOnUse" x="52" y="9" width="6" height="6">
        <path d="M56.5286 9.58923C57.6763 10.2558 58.0703 11.7265 57.4056 12.8776C56.741 14.0287 55.2747 14.4238 54.127 13.7606C52.9793 13.094 52.5853 11.6234 53.2465 10.4723C53.9111 9.32122 55.3774 8.92607 56.5251 9.58923" fill="white"></path>
      </mask>
      <g mask="url(#mask6_362_26943)">
        <mask id="mask7_362_26943" style="mask-type:luminance" maskUnits="userSpaceOnUse" x="52" y="9" width="6" height="6">
          <path d="M57.7309 9.16016H52.9277V14.1253H57.7309V9.16016Z" fill="white"></path>
        </mask>
        <g mask="url(#mask7_362_26943)">
          <path d="M49.4951 17.5266H61.1606V5.82324H49.4951V17.5231V17.5266Z" fill="#FF9624"></path>
        </g>
      </g>
    </g>
  </g>
  <mask id="mask8_362_26943" style="mask-type:luminance" maskUnits="userSpaceOnUse" x="73" y="20" width="5" height="6">
    <path d="M76.6458 21.2377C77.7935 21.9043 78.1874 23.3749 77.5228 24.526C76.8582 25.6771 75.3919 26.0722 74.2442 25.4091C73.0965 24.7425 72.7025 23.2718 73.3637 22.1207C74.0283 20.9697 75.4946 20.5745 76.6423 21.2377" fill="white"></path>
  </mask>
  <g mask="url(#mask8_362_26943)">
    <mask id="mask9_362_26943" style="mask-type:luminance" maskUnits="userSpaceOnUse" x="52" y="3" width="27" height="29">
      <path d="M78.0984 3.3457H52.9277V31.5697H78.0984V3.3457Z" fill="white"></path>
    </mask>
    <g mask="url(#mask9_362_26943)">
      <path d="M69.6123 29.1745H81.2778V17.4746H69.6123V29.1745Z" fill="#FF9624"></path>
    </g>
  </g>
  <mask id="mask10_362_26943" style="mask-type:luminance" maskUnits="userSpaceOnUse" x="52" y="20" width="6" height="6">
    <path d="M54.1269 21.2409C55.2746 20.5743 56.7444 20.9695 57.4056 22.124C58.0702 23.2751 57.6762 24.7492 56.5251 25.4123C55.3774 26.0789 53.9077 25.6838 53.2464 24.5293C52.5818 23.3782 52.9758 21.9041 54.1235 21.2409" fill="white"></path>
  </mask>
  <g mask="url(#mask10_362_26943)">
    <mask id="mask11_362_26943" style="mask-type:luminance" maskUnits="userSpaceOnUse" x="52" y="3" width="27" height="29">
      <path d="M78.0984 3.3457H52.9277V31.5697H78.0984V3.3457Z" fill="white"></path>
    </mask>
    <g mask="url(#mask11_362_26943)">
      <path d="M49.4951 29.1745H61.1606V17.4746H49.4951V29.1745Z" fill="#00DDAE"></path>
    </g>
  </g>
  <mask id="mask12_362_26943" style="mask-type:luminance" maskUnits="userSpaceOnUse" x="73" y="9" width="5" height="6">
    <path d="M74.2445 9.58955C75.3922 8.92295 76.8619 9.3181 77.5231 10.4726C78.1878 11.6237 77.7938 13.0978 76.6461 13.761C75.4984 14.4276 74.0286 14.0324 73.3674 12.8779C72.7028 11.7268 73.0968 10.2527 74.2479 9.58955" fill="white"></path>
  </mask>
  <g mask="url(#mask12_362_26943)">
    <mask id="mask13_362_26943" style="mask-type:luminance" maskUnits="userSpaceOnUse" x="52" y="3" width="27" height="29">
      <path d="M78.0989 3.3457H52.9282V31.5697H78.0989V3.3457Z" fill="white"></path>
    </mask>
    <g mask="url(#mask13_362_26943)">
      <path d="M69.6128 17.5231H81.2782V5.82324H69.6128V17.5231Z" fill="#00DDAE"></path>
    </g>
  </g>
  <mask id="mask14_362_26943" style="mask-type:luminance" maskUnits="userSpaceOnUse" x="62" y="15" width="6" height="17">
    <path d="M65.3879 15.0869C64.0621 15.0869 62.9863 16.1658 62.9863 17.4956V29.1508C62.9863 30.4806 64.0621 31.5595 65.3879 31.5595C66.7138 31.5595 67.7895 30.4806 67.7895 29.1508V17.4956C67.7895 16.1658 66.7138 15.0869 65.3879 15.0869Z" fill="white"></path>
  </mask>
  <g mask="url(#mask14_362_26943)">
    <mask id="mask15_362_26943" style="mask-type:luminance" maskUnits="userSpaceOnUse" x="52" y="3" width="27" height="29">
      <path d="M78.0984 3.3457H52.9277V31.5697H78.0984V3.3457Z" fill="white"></path>
    </mask>
    <g mask="url(#mask15_362_26943)">
      <path d="M59.5537 34.9986H71.2192V11.6436H59.5537V34.9986Z" fill="#00093D"></path>
    </g>
  </g>
  <path d="M166.151 50.3949C165.584 50.3949 165.075 50.3004 164.625 50.1114C164.175 49.9134 163.82 49.6434 163.559 49.3014C163.298 48.9504 163.154 48.5499 163.127 48.0999H164.396C164.432 48.4689 164.603 48.7704 164.909 49.0044C165.224 49.2384 165.633 49.3554 166.137 49.3554C166.605 49.3554 166.974 49.2519 167.244 49.0449C167.514 48.8379 167.649 48.5769 167.649 48.2619C167.649 47.9379 167.505 47.6994 167.217 47.5464C166.929 47.3844 166.484 47.2269 165.881 47.0739C165.332 46.9299 164.882 46.7859 164.531 46.6419C164.189 46.4889 163.892 46.2684 163.64 45.9804C163.397 45.6834 163.275 45.2964 163.275 44.8194C163.275 44.4414 163.388 44.0949 163.613 43.7799C163.838 43.4649 164.157 43.2174 164.571 43.0374C164.985 42.8484 165.458 42.7539 165.989 42.7539C166.808 42.7539 167.469 42.9609 167.973 43.3749C168.477 43.7889 168.747 44.3559 168.783 45.0759H167.555C167.528 44.6889 167.37 44.3784 167.082 44.1444C166.803 43.9104 166.425 43.7934 165.948 43.7934C165.507 43.7934 165.156 43.8879 164.895 44.0769C164.634 44.2659 164.504 44.5134 164.504 44.8194C164.504 45.0624 164.58 45.2649 164.733 45.4269C164.895 45.5799 165.093 45.7059 165.327 45.8049C165.57 45.8949 165.903 45.9984 166.326 46.1154C166.857 46.2594 167.289 46.4034 167.622 46.5474C167.955 46.6824 168.239 46.8894 168.473 47.1684C168.716 47.4474 168.842 47.8119 168.851 48.2619C168.851 48.6669 168.738 49.0314 168.513 49.3554C168.288 49.6794 167.969 49.9359 167.555 50.1249C167.15 50.3049 166.682 50.3949 166.151 50.3949Z" fill="#0B1B6D"></path>
  <path d="M154.873 46.5609C154.873 45.7959 155.026 45.1299 155.332 44.5629C155.638 43.9869 156.061 43.5414 156.601 43.2264C157.15 42.9114 157.775 42.7539 158.477 42.7539C159.386 42.7539 160.133 42.9744 160.718 43.4154C161.312 43.8564 161.704 44.4684 161.893 45.2514H160.57C160.444 44.8014 160.196 44.4459 159.827 44.1849C159.467 43.9239 159.017 43.7934 158.477 43.7934C157.775 43.7934 157.208 44.0364 156.776 44.5224C156.344 44.9994 156.128 45.6789 156.128 46.5609C156.128 47.4519 156.344 48.1404 156.776 48.6264C157.208 49.1124 157.775 49.3554 158.477 49.3554C159.017 49.3554 159.467 49.2294 159.827 48.9774C160.187 48.7254 160.435 48.3654 160.57 47.8974H161.893C161.695 48.6534 161.299 49.2609 160.705 49.7199C160.111 50.1699 159.368 50.3949 158.477 50.3949C157.775 50.3949 157.15 50.2374 156.601 49.9224C156.061 49.6074 155.638 49.1619 155.332 48.5859C155.026 48.0099 154.873 47.3349 154.873 46.5609Z" fill="#0B1B6D"></path>
  <path d="M152.644 41.674C152.41 41.674 152.212 41.593 152.05 41.431C151.888 41.269 151.807 41.071 151.807 40.837C151.807 40.603 151.888 40.405 152.05 40.243C152.212 40.081 152.41 40 152.644 40C152.869 40 153.058 40.081 153.211 40.243C153.373 40.405 153.454 40.603 153.454 40.837C153.454 41.071 153.373 41.269 153.211 41.431C153.058 41.593 152.869 41.674 152.644 41.674ZM153.238 42.8755V50.2735H152.009V42.8755H153.238Z" fill="#0B1B6D"></path>
  <path d="M148.59 43.8882V48.2487C148.59 48.6087 148.667 48.8652 148.82 49.0182C148.973 49.1622 149.238 49.2342 149.616 49.2342H150.521V50.2737H149.414C148.73 50.2737 148.217 50.1162 147.875 49.8012C147.533 49.4862 147.362 48.9687 147.362 48.2487V43.8882H146.403V42.8757H147.362V41.0127H148.59V42.8757H150.521V43.8882H148.59Z" fill="#0B1B6D"></path>
  <path d="M142.658 50.3949C142.091 50.3949 141.582 50.3004 141.132 50.1114C140.682 49.9134 140.327 49.6434 140.066 49.3014C139.805 48.9504 139.661 48.5499 139.634 48.0999H140.903C140.939 48.4689 141.11 48.7704 141.416 49.0044C141.731 49.2384 142.14 49.3554 142.644 49.3554C143.112 49.3554 143.481 49.2519 143.751 49.0449C144.021 48.8379 144.156 48.5769 144.156 48.2619C144.156 47.9379 144.012 47.6994 143.724 47.5464C143.436 47.3844 142.991 47.2269 142.388 47.0739C141.839 46.9299 141.389 46.7859 141.038 46.6419C140.696 46.4889 140.399 46.2684 140.147 45.9804C139.904 45.6834 139.782 45.2964 139.782 44.8194C139.782 44.4414 139.895 44.0949 140.12 43.7799C140.345 43.4649 140.664 43.2174 141.078 43.0374C141.492 42.8484 141.965 42.7539 142.496 42.7539C143.315 42.7539 143.976 42.9609 144.48 43.3749C144.984 43.7889 145.254 44.3559 145.29 45.0759H144.062C144.035 44.6889 143.877 44.3784 143.589 44.1444C143.31 43.9104 142.932 43.7934 142.455 43.7934C142.014 43.7934 141.663 43.8879 141.402 44.0769C141.141 44.2659 141.011 44.5134 141.011 44.8194C141.011 45.0624 141.087 45.2649 141.24 45.4269C141.402 45.5799 141.6 45.7059 141.834 45.8049C142.077 45.8949 142.41 45.9984 142.833 46.1154C143.364 46.2594 143.796 46.4034 144.129 46.5474C144.462 46.6824 144.746 46.8894 144.98 47.1684C145.223 47.4474 145.349 47.8119 145.358 48.2619C145.358 48.6669 145.245 49.0314 145.02 49.3554C144.795 49.6794 144.476 49.9359 144.062 50.1249C143.657 50.3049 143.189 50.3949 142.658 50.3949Z" fill="#0B1B6D"></path>
  <path d="M134.63 50.3949C133.937 50.3949 133.307 50.2374 132.74 49.9224C132.182 49.6074 131.741 49.1619 131.417 48.5859C131.102 48.0009 130.944 47.3259 130.944 46.5609C130.944 45.8049 131.106 45.1389 131.43 44.5629C131.763 43.9779 132.213 43.5324 132.78 43.2264C133.347 42.9114 133.982 42.7539 134.684 42.7539C135.386 42.7539 136.02 42.9114 136.587 43.2264C137.154 43.5324 137.6 43.9734 137.924 44.5494C138.257 45.1254 138.423 45.7959 138.423 46.5609C138.423 47.3259 138.252 48.0009 137.91 48.5859C137.577 49.1619 137.123 49.6074 136.547 49.9224C135.971 50.2374 135.332 50.3949 134.63 50.3949ZM134.63 49.3149C135.071 49.3149 135.485 49.2114 135.872 49.0044C136.259 48.7974 136.569 48.4869 136.803 48.0729C137.046 47.6589 137.168 47.1549 137.168 46.5609C137.168 45.9669 137.051 45.4629 136.817 45.0489C136.583 44.6349 136.277 44.3289 135.899 44.1309C135.521 43.9239 135.111 43.8204 134.67 43.8204C134.22 43.8204 133.806 43.9239 133.428 44.1309C133.059 44.3289 132.762 44.6349 132.537 45.0489C132.312 45.4629 132.2 45.9669 132.2 46.5609C132.2 47.1639 132.308 47.6724 132.524 48.0864C132.749 48.5004 133.046 48.8109 133.415 49.0179C133.784 49.2159 134.189 49.3149 134.63 49.3149Z" fill="#0B1B6D"></path>
  <path d="M126.373 42.7402C127.273 42.7402 128.002 43.0147 128.56 43.5637C129.118 44.1037 129.397 44.8867 129.397 45.9127V50.2732H128.182V46.0882C128.182 45.3502 127.997 44.7877 127.628 44.4007C127.259 44.0047 126.755 43.8067 126.116 43.8067C125.468 43.8067 124.951 44.0092 124.564 44.4142C124.186 44.8192 123.997 45.4087 123.997 46.1827V50.2732H122.768V42.8752H123.997V43.9282C124.24 43.5502 124.568 43.2577 124.982 43.0507C125.405 42.8437 125.869 42.7402 126.373 42.7402Z" fill="#0B1B6D"></path>
  <path d="M116.696 42.7539C117.335 42.7539 117.893 42.8934 118.37 43.1724C118.856 43.4514 119.216 43.8024 119.45 44.2254V42.8754H120.692V50.4354C120.692 51.1104 120.548 51.7089 120.26 52.2309C119.972 52.7619 119.558 53.1759 119.018 53.4729C118.487 53.7699 117.866 53.9184 117.155 53.9184C116.183 53.9184 115.373 53.6889 114.725 53.2299C114.077 52.7709 113.695 52.1454 113.578 51.3534H114.793C114.928 51.8034 115.207 52.1634 115.63 52.4334C116.053 52.7124 116.561 52.8519 117.155 52.8519C117.83 52.8519 118.379 52.6404 118.802 52.2174C119.234 51.7944 119.45 51.2004 119.45 50.4354V48.8829C119.207 49.3149 118.847 49.6749 118.37 49.9629C117.893 50.2509 117.335 50.3949 116.696 50.3949C116.039 50.3949 115.441 50.2329 114.901 49.9089C114.37 49.5849 113.951 49.1304 113.645 48.5454C113.339 47.9604 113.186 47.2944 113.186 46.5474C113.186 45.7914 113.339 45.1299 113.645 44.5629C113.951 43.9869 114.37 43.5414 114.901 43.2264C115.441 42.9114 116.039 42.7539 116.696 42.7539ZM119.45 46.5609C119.45 46.0029 119.338 45.5169 119.113 45.1029C118.888 44.6889 118.582 44.3739 118.195 44.1579C117.817 43.9329 117.398 43.8204 116.939 43.8204C116.48 43.8204 116.062 43.9284 115.684 44.1444C115.306 44.3604 115.004 44.6754 114.779 45.0894C114.554 45.5034 114.442 45.9894 114.442 46.5474C114.442 47.1144 114.554 47.6094 114.779 48.0324C115.004 48.4464 115.306 48.7659 115.684 48.9909C116.062 49.2069 116.48 49.3149 116.939 49.3149C117.398 49.3149 117.817 49.2069 118.195 48.9909C118.582 48.7659 118.888 48.4464 119.113 48.0324C119.338 47.6094 119.45 47.1189 119.45 46.5609Z" fill="#0B1B6D"></path>
  <path d="M104.063 46.5474C104.063 45.7914 104.216 45.1299 104.522 44.5629C104.828 43.9869 105.246 43.5414 105.777 43.2264C106.317 42.9114 106.916 42.7539 107.573 42.7539C108.221 42.7539 108.783 42.8934 109.26 43.1724C109.737 43.4514 110.093 43.8024 110.327 44.2254V42.8754H111.569V50.2734H110.327V48.8964C110.084 49.3284 109.719 49.6884 109.233 49.9764C108.756 50.2554 108.198 50.3949 107.559 50.3949C106.902 50.3949 106.308 50.2329 105.777 49.9089C105.246 49.5849 104.828 49.1304 104.522 48.5454C104.216 47.9604 104.063 47.2944 104.063 46.5474ZM110.327 46.5609C110.327 46.0029 110.214 45.5169 109.989 45.1029C109.764 44.6889 109.458 44.3739 109.071 44.1579C108.693 43.9329 108.275 43.8204 107.816 43.8204C107.357 43.8204 106.938 43.9284 106.56 44.1444C106.182 44.3604 105.881 44.6754 105.656 45.0894C105.431 45.5034 105.318 45.9894 105.318 46.5474C105.318 47.1144 105.431 47.6094 105.656 48.0324C105.881 48.4464 106.182 48.7659 106.56 48.9909C106.938 49.2069 107.357 49.3149 107.816 49.3149C108.275 49.3149 108.693 49.2069 109.071 48.9909C109.458 48.7659 109.764 48.4464 109.989 48.0324C110.214 47.6094 110.327 47.1189 110.327 46.5609Z" fill="#0B1B6D"></path>
  <path d="M101.834 41.674C101.6 41.674 101.402 41.593 101.24 41.431C101.078 41.269 100.997 41.071 100.997 40.837C100.997 40.603 101.078 40.405 101.24 40.243C101.402 40.081 101.6 40 101.834 40C102.059 40 102.248 40.081 102.401 40.243C102.563 40.405 102.644 40.603 102.644 40.837C102.644 41.071 102.563 41.269 102.401 41.431C102.248 41.593 102.059 41.674 101.834 41.674ZM102.428 42.8755V50.2735H101.2V42.8755H102.428Z" fill="#0B1B6D"></path>
  <path d="M94.5843 40.8643C95.6103 40.8643 96.4968 41.0578 97.2438 41.4448C97.9998 41.8228 98.5758 42.3673 98.9718 43.0783C99.3768 43.7893 99.5793 44.6263 99.5793 45.5893C99.5793 46.5523 99.3768 47.3893 98.9718 48.1003C98.5758 48.8023 97.9998 49.3423 97.2438 49.7203C96.4968 50.0893 95.6103 50.2738 94.5843 50.2738H91.6548V40.8643H94.5843ZM94.5843 49.2613C95.7993 49.2613 96.7263 48.9418 97.3653 48.3028C98.0043 47.6548 98.3238 46.7503 98.3238 45.5893C98.3238 44.4193 97.9998 43.5058 97.3518 42.8488C96.7128 42.1918 95.7903 41.8633 94.5843 41.8633H92.8833V49.2613H94.5843Z" fill="#0B1B6D"></path>
  <path d="M82.6469 50.3949C81.9539 50.3949 81.3239 50.2374 80.7569 49.9224C80.1989 49.6074 79.7579 49.1619 79.4339 48.5859C79.1189 48.0009 78.9614 47.3259 78.9614 46.5609C78.9614 45.8049 79.1234 45.1389 79.4474 44.5629C79.7804 43.9779 80.2304 43.5324 80.7974 43.2264C81.3644 42.9114 81.9989 42.7539 82.7009 42.7539C83.4029 42.7539 84.0374 42.9114 84.6044 43.2264C85.1714 43.5324 85.6169 43.9734 85.9409 44.5494C86.2739 45.1254 86.4404 45.7959 86.4404 46.5609C86.4404 47.3259 86.2694 48.0009 85.9274 48.5859C85.5944 49.1619 85.1399 49.6074 84.5639 49.9224C83.9879 50.2374 83.3489 50.3949 82.6469 50.3949ZM82.6469 49.3149C83.0879 49.3149 83.5019 49.2114 83.8889 49.0044C84.2759 48.7974 84.5864 48.4869 84.8204 48.0729C85.0634 47.6589 85.1849 47.1549 85.1849 46.5609C85.1849 45.9669 85.0679 45.4629 84.8339 45.0489C84.5999 44.6349 84.2939 44.3289 83.9159 44.1309C83.5379 43.9239 83.1284 43.8204 82.6874 43.8204C82.2374 43.8204 81.8234 43.9239 81.4454 44.1309C81.0764 44.3289 80.7794 44.6349 80.5544 45.0489C80.3294 45.4629 80.2169 45.9669 80.2169 46.5609C80.2169 47.1639 80.3249 47.6724 80.5409 48.0864C80.7659 48.5004 81.0629 48.8109 81.4319 49.0179C81.8009 49.2159 82.2059 49.3149 82.6469 49.3149Z" fill="#0B1B6D"></path>
  <path d="M76.0015 43.8882V48.2487C76.0015 48.6087 76.078 48.8652 76.231 49.0182C76.384 49.1622 76.6495 49.2342 77.0275 49.2342H77.932V50.2737H76.825C76.141 50.2737 75.628 50.1162 75.286 49.8012C74.944 49.4862 74.773 48.9687 74.773 48.2487V43.8882H73.8145V42.8757H74.773V41.0127H76.0015V42.8757H77.932V43.8882H76.0015Z" fill="#0B1B6D"></path>
  <path d="M61.3218 46.5474C61.3218 45.7914 61.4748 45.1299 61.7808 44.5629C62.0868 43.9869 62.5053 43.5414 63.0363 43.2264C63.5763 42.9114 64.1748 42.7539 64.8318 42.7539C65.4798 42.7539 66.0423 42.8934 66.5193 43.1724C66.9963 43.4514 67.3518 43.8024 67.5858 44.2254V42.8754H68.8278V50.2734H67.5858V48.8964C67.3428 49.3284 66.9783 49.6884 66.4923 49.9764C66.0153 50.2554 65.4573 50.3949 64.8183 50.3949C64.1613 50.3949 63.5673 50.2329 63.0363 49.9089C62.5053 49.5849 62.0868 49.1304 61.7808 48.5454C61.4748 47.9604 61.3218 47.2944 61.3218 46.5474ZM67.5858 46.5609C67.5858 46.0029 67.4733 45.5169 67.2483 45.1029C67.0233 44.6889 66.7173 44.3739 66.3303 44.1579C65.9523 43.9329 65.5338 43.8204 65.0748 43.8204C64.6158 43.8204 64.1973 43.9284 63.8193 44.1444C63.4413 44.3604 63.1398 44.6754 62.9148 45.0894C62.6898 45.5034 62.5773 45.9894 62.5773 46.5474C62.5773 47.1144 62.6898 47.6094 62.9148 48.0324C63.1398 48.4464 63.4413 48.7659 63.8193 48.9909C64.1973 49.2069 64.6158 49.3149 65.0748 49.3149C65.5338 49.3149 65.9523 49.2069 66.3303 48.9909C66.7173 48.7659 67.0233 48.4464 67.2483 48.0324C67.4733 47.6094 67.5858 47.1189 67.5858 46.5609Z" fill="#0B1B6D"></path>
  <path d="M58.3618 43.8882V48.2487C58.3618 48.6087 58.4383 48.8652 58.5913 49.0182C58.7443 49.1622 59.0098 49.2342 59.3878 49.2342H60.2923V50.2737H59.1853C58.5013 50.2737 57.9883 50.1162 57.6463 49.8012C57.3043 49.4862 57.1333 48.9687 57.1333 48.2487V43.8882H56.1748V42.8757H57.1333V41.0127H58.3618V42.8757H60.2923V43.8882H58.3618Z" fill="#0B1B6D"></path>
  <path d="M47.2812 46.5474C47.2812 45.7914 47.4342 45.1299 47.7402 44.5629C48.0462 43.9869 48.4647 43.5414 48.9957 43.2264C49.5357 42.9114 50.1342 42.7539 50.7912 42.7539C51.4392 42.7539 52.0017 42.8934 52.4787 43.1724C52.9557 43.4514 53.3113 43.8024 53.5452 44.2254V42.8754H54.7873V50.2734H53.5452V48.8964C53.3022 49.3284 52.9377 49.6884 52.4517 49.9764C51.9747 50.2554 51.4167 50.3949 50.7777 50.3949C50.1207 50.3949 49.5267 50.2329 48.9957 49.9089C48.4647 49.5849 48.0462 49.1304 47.7402 48.5454C47.4342 47.9604 47.2812 47.2944 47.2812 46.5474ZM53.5452 46.5609C53.5452 46.0029 53.4327 45.5169 53.2077 45.1029C52.9827 44.6889 52.6767 44.3739 52.2897 44.1579C51.9117 43.9329 51.4932 43.8204 51.0342 43.8204C50.5752 43.8204 50.1567 43.9284 49.7787 44.1444C49.4007 44.3604 49.0992 44.6754 48.8742 45.0894C48.6492 45.5034 48.5367 45.9894 48.5367 46.5474C48.5367 47.1144 48.6492 47.6094 48.8742 48.0324C49.0992 48.4464 49.4007 48.7659 49.7787 48.9909C50.1567 49.2069 50.5752 49.3149 51.0342 49.3149C51.4932 49.3149 51.9117 49.2069 52.2897 48.9909C52.6767 48.7659 52.9827 48.4464 53.2077 48.0324C53.4327 47.6094 53.5452 47.1189 53.5452 46.5609Z" fill="#0B1B6D"></path>
  <path d="M41.1248 40.8643C42.1508 40.8643 43.0373 41.0578 43.7843 41.4448C44.5403 41.8228 45.1163 42.3673 45.5123 43.0783C45.9173 43.7893 46.1198 44.6263 46.1198 45.5893C46.1198 46.5523 45.9173 47.3893 45.5123 48.1003C45.1163 48.8023 44.5403 49.3423 43.7843 49.7203C43.0373 50.0893 42.1508 50.2738 41.1248 50.2738H38.1953V40.8643H41.1248ZM41.1248 49.2613C42.3398 49.2613 43.2668 48.9418 43.9058 48.3028C44.5448 47.6548 44.8643 46.7503 44.8643 45.5893C44.8643 44.4193 44.5403 43.5058 43.8923 42.8488C43.2533 42.1918 42.3308 41.8633 41.1248 41.8633H39.4238V49.2613H41.1248Z" fill="#0B1B6D"></path>
  <path d="M29.584 42.7402C30.16 42.7402 30.673 42.8617 31.123 43.1047C31.573 43.3387 31.9285 43.6942 32.1895 44.1712C32.4505 44.6482 32.581 45.2287 32.581 45.9127V50.2732H31.366V46.0882C31.366 45.3502 31.1815 44.7877 30.8125 44.4007C30.4525 44.0047 29.962 43.8067 29.341 43.8067C28.702 43.8067 28.1935 44.0137 27.8155 44.4277C27.4375 44.8327 27.2485 45.4222 27.2485 46.1962V50.2732H26.0335V46.0882C26.0335 45.3502 25.849 44.7877 25.48 44.4007C25.12 44.0047 24.6295 43.8067 24.0085 43.8067C23.3695 43.8067 22.861 44.0137 22.483 44.4277C22.105 44.8327 21.916 45.4222 21.916 46.1962V50.2732H20.6875V42.8752H21.916V43.9417C22.159 43.5547 22.483 43.2577 22.888 43.0507C23.302 42.8437 23.7565 42.7402 24.2515 42.7402C24.8725 42.7402 25.4215 42.8797 25.8985 43.1587C26.3755 43.4377 26.731 43.8472 26.965 44.3872C27.172 43.8652 27.514 43.4602 27.991 43.1722C28.468 42.8842 28.999 42.7402 29.584 42.7402Z" fill="#0B1B6D"></path>
  <path d="M15.2788 50.3949C14.5858 50.3949 13.9558 50.2374 13.3888 49.9224C12.8308 49.6074 12.3898 49.1619 12.0658 48.5859C11.7508 48.0009 11.5933 47.3259 11.5933 46.5609C11.5933 45.8049 11.7553 45.1389 12.0793 44.5629C12.4123 43.9779 12.8623 43.5324 13.4293 43.2264C13.9963 42.9114 14.6308 42.7539 15.3328 42.7539C16.0348 42.7539 16.6693 42.9114 17.2363 43.2264C17.8033 43.5324 18.2488 43.9734 18.5728 44.5494C18.9058 45.1254 19.0723 45.7959 19.0723 46.5609C19.0723 47.3259 18.9013 48.0009 18.5593 48.5859C18.2263 49.1619 17.7718 49.6074 17.1958 49.9224C16.6198 50.2374 15.9808 50.3949 15.2788 50.3949ZM15.2788 49.3149C15.7198 49.3149 16.1338 49.2114 16.5208 49.0044C16.9078 48.7974 17.2183 48.4869 17.4523 48.0729C17.6953 47.6589 17.8168 47.1549 17.8168 46.5609C17.8168 45.9669 17.6998 45.4629 17.4658 45.0489C17.2318 44.6349 16.9258 44.3289 16.5478 44.1309C16.1698 43.9239 15.7603 43.8204 15.3193 43.8204C14.8693 43.8204 14.4553 43.9239 14.0773 44.1309C13.7083 44.3289 13.4113 44.6349 13.1863 45.0489C12.9613 45.4629 12.8488 45.9669 12.8488 46.5609C12.8488 47.1639 12.9568 47.6724 13.1728 48.0864C13.3978 48.5004 13.6948 48.8109 14.0638 49.0179C14.4328 49.2159 14.8378 49.3149 15.2788 49.3149Z" fill="#0B1B6D"></path>
  <path d="M8.24461 44.0767C8.46061 43.6537 8.76661 43.3252 9.16261 43.0912C9.56761 42.8572 10.0581 42.7402 10.6341 42.7402V44.0092H10.3101C8.93311 44.0092 8.24461 44.7562 8.24461 46.2502V50.2732H7.01611V42.8752H8.24461V44.0767Z" fill="#0B1B6D"></path>
  <path d="M5.516 40.5156V41.5516H1.274V44.8416H4.718V45.8776H1.274V50.2736H0V40.5156H5.516Z" fill="#0B1B6D"></path>
</svg>
